<svg width="211" height="200" viewBox="0 0 211 200" fill="none" xmlns="http://www.w3.org/2000/svg">
<circle cx="111" cy="100" r="100" fill="url(#paint0_linear_1_47)"/>
<path d="M164.226 146.578C154.037 138.589 149.056 128.582 153.528 120.974C149.234 113.221 170.284 110.263 180.773 118.427C191.348 124.629 196.295 135.824 191.823 143.433C187.351 151.041 178.326 157.633 164.226 146.578Z" fill="#211F1F"/>
<path d="M134.046 103.416L106.038 119.567V87.2641L134.046 103.416Z" fill="#211F1F"/>
<path d="M125.391 37.1788C123.653 50.0009 117.536 60 108.703 60C104.183 67.624 90.9718 50.3474 92.7102 37.1788C92.7102 24.9298 99.8705 15 108.703 15C117.536 15 127.797 19.4368 125.391 37.1788Z" fill="#211F1F"/>
<path d="M109.616 51.3186L175.714 89.0652L169.982 99.0797L103.5 61.0009L109.616 51.3186Z" fill="#211F1F"/>
<path d="M165.709 100.365L173.745 90.0686L173 87.5L191.845 98.5447L165.709 100.365Z" fill="#211F1F"/>
<path d="M149.951 96.5081L157.5 91L171.734 98.235L138.195 113.777L108.113 129.319L110.188 126.556L118.486 119.648L128.859 111.705L149.951 96.5081Z" fill="#211F1F"/>
<path d="M53.2756 126.35C65.1689 121.222 76.3493 121.629 80.9061 129.187C90.5 128.5 82.3266 149.008 70.1361 154.314C59.6311 160.633 47.4211 159.629 42.8643 152.072C38.3074 144.514 36.8188 133.445 53.2756 126.35Z" fill="#211F1F"/>
<rect width="76.7908" height="11.5574" transform="matrix(-0.0227127 -0.999309 1.00018 -0.0226808 73.4406 133.262)" fill="#211F1F"/>
<path d="M86.5398 59.5027L73.5511 58.0433L71.68 56.6671L71.68 37.8581L86.5398 59.5027Z" fill="#211F1F"/>
<path d="M91.1048 75.4732L83.387 72.9387L81.5918 55.8765L112.277 76.2189L141.21 93.5987L137.725 93.3134L127.434 89.9341L115.18 85.3369L91.1048 75.4732Z" fill="#211F1F"/>
<path d="M161.457 125.258L94.5001 163.5L88.5 153.776L156.473 115.446L161.457 125.258Z" fill="#211F1F"/>
<path d="M89.6212 149.5L94.5399 161.596L99 161L77.678 172.877L89.6212 149.5Z" fill="#211F1F"/>
<path d="M100.571 137.694L102 148.5L88.0508 155.583L91.6143 118.824L93.4272 85.0438L94.7622 88.2297L96.5241 98.875L98.1301 111.832L100.571 137.694Z" fill="#211F1F"/>
<defs>
<linearGradient id="paint0_linear_1_47" x1="111" y1="0" x2="111" y2="200" gradientUnits="userSpaceOnUse">
<stop stop-color="#455EDE"/>
<stop offset="0.54" stop-color="#2F409A"/>
<stop offset="1" stop-color="#525875"/>
</linearGradient>
</defs>
</svg>
